<?xml version="1.0" encoding="UTF-8" standalone="no"?>
<!-- Created with Inkscape (http://www.inkscape.org/) -->

<svg
   width="94.279381mm"
   height="59.310905mm"
   viewBox="0 0 94.279381 59.310905"
   version="1.1"
   id="svg5"
   xmlns:inkscape="http://www.inkscape.org/namespaces/inkscape"
   xmlns:sodipodi="http://sodipodi.sourceforge.net/DTD/sodipodi-0.dtd"
   xmlns="http://www.w3.org/2000/svg"
   xmlns:svg="http://www.w3.org/2000/svg">
  <sodipodi:namedview
     id="namedview7"
     pagecolor="#505050"
     bordercolor="#eeeeee"
     borderopacity="1"
     inkscape:showpageshadow="0"
     inkscape:pageopacity="0"
     inkscape:pagecheckerboard="0"
     inkscape:deskcolor="#505050"
     inkscape:document-units="mm"
     showgrid="false"
     inkscape:zoom="1.0407954"
     inkscape:cx="224.34764"
     inkscape:cy="465.50934"
     inkscape:window-width="1366"
     inkscape:window-height="704"
     inkscape:window-x="0"
     inkscape:window-y="0"
     inkscape:window-maximized="1"
     inkscape:current-layer="layer1-2" />
  <defs
     id="defs2" />
  <g
     inkscape:label="Layer 1"
     inkscape:groupmode="layer"
     id="layer1"
     transform="translate(-54.389325,-71.107412)">
    <path
       id="path111"
       style="fill:#311414;fill-opacity:1;stroke:#961a1a;stroke-width:0.529167;stroke-dasharray:none;stroke-opacity:1"
       d="m 101.53592,77.134827 c -1.733954,1.282033 -3.329166,2.752486 -4.741828,4.383711 -2.801237,3.232611 -4.883292,7.082142 -6.055961,11.196733 -1.163819,4.110357 -1.429233,8.472449 -0.751376,12.692249 0.672542,4.22156 2.282427,8.28737 4.678785,11.82822 1.861215,2.74959 4.194735,5.17486 6.86211,7.1515 0.63941,-0.4737 1.25958,-0.97335 1.85777,-1.4981 3.2197,-2.81145 5.81695,-6.33387 7.53753,-10.2464 2.00876,-4.52115 2.82399,-9.55376 2.41122,-14.480773 -0.46847,-5.463597 -2.60124,-11.00264 -6.04563,-15.405261 -1.6417,-2.135368 -3.58908,-4.024585 -5.75262,-5.621879 z" />
  </g>
  <g
     inkscape:label="Layer 1"
     inkscape:groupmode="layer"
     id="layer1-2"
     inkscape:export-filename="venn_inter.svg"
     inkscape:export-xdpi="96"
     inkscape:export-ydpi="96"
     transform="translate(-54.389325,-71.107412)">
    <path
       id="path111-4"
       style="fill:none;stroke:#961a1a;stroke-width:0.529167;stroke-dasharray:none;stroke-opacity:1"
       d="m 81.478516,71.470703 c -3.247283,0.324378 -6.448777,1.121038 -9.42895,2.46058 -3.841561,1.721174 -7.315277,4.268806 -10.0852,7.442146 -2.854124,3.230013 -4.968913,7.106811 -6.160795,11.249065 -1.189878,4.102498 -1.45776,8.468326 -0.795825,12.688446 0.652168,4.22331 2.253277,8.29671 4.638862,11.8428 2.381578,3.54436 5.541798,6.56803 9.20453,8.76806 3.252885,1.97496 6.903218,3.29945 10.663619,3.87941 4.228551,0.66392 8.603553,0.38787 12.711876,-0.81137 4.107088,-1.18249 7.946837,-3.28286 11.158847,-6.10054 3.2197,-2.81145 5.81694,-6.33381 7.53752,-10.24635 2.00877,-4.52115 2.82375,-9.55382 2.41098,-14.480841 -0.46847,-5.463602 -2.60125,-11.002526 -6.04564,-15.405152 C 102.71879,76.813309 95.792859,72.759752 88.375,71.677734 86.206859,71.328846 83.764284,71.306932 81.478516,71.470703 Z" />
    <path
       id="path111-7-8"
       style="fill:none;stroke:#961a1a;stroke-width:0.529167;stroke-dasharray:none;stroke-opacity:1"
       d="m 116.44547,71.468128 c -3.2804,0.332606 -6.51536,1.1375 -9.52249,2.500801 -3.8664,1.750756 -7.349139,4.339723 -10.128739,7.549375 -2.80124,3.232614 -4.883258,7.082333 -6.055928,11.196928 -1.16382,4.110361 -1.429634,8.472378 -0.751776,12.692178 0.672542,4.22156 2.282424,8.28726 4.678784,11.82811 2.39837,3.54314 5.578639,6.55136 9.250659,8.74934 3.66755,2.19838 7.81913,3.57227 12.07228,4.01458 4.25885,0.43904 8.60824,-0.0691 12.65548,-1.46698 4.02974,-1.40246 7.7478,-3.68851 10.81284,-6.65892 3.07062,-2.97412 5.47886,-6.62497 7.00607,-10.61872 2.18196,-5.73062 2.56005,-12.154772 0.95345,-18.083887 -1.90493,-7.2688 -6.80343,-13.788697 -13.31442,-17.643345 -4.81583,-2.873625 -10.44013,-4.377938 -16.07911,-4.127614 -0.5257,0.02272 -1.0514,0.04544 -1.5771,0.06815 z" />
  </g>
</svg>
